<?xml version="1.0" encoding="utf-8"?>
<!-- Generator: Adobe Illustrator 27.3.1, SVG Export Plug-In . SVG Version: 6.00 Build 0)  -->
<svg version="1.1" id="Layer_1" xmlns="http://www.w3.org/2000/svg" xmlns:xlink="http://www.w3.org/1999/xlink" x="0px" y="0px"
	 viewBox="0 0 4932.8 1205.8" style="enable-background:new 0 0 4932.8 1205.8;" xml:space="preserve">
<style type="text/css">
	.st0{fill:#2058DC;}
</style>
<g>
	<path class="st0" d="M886.8,593.4c-0.2-12.8-0.3-25.7-0.4-38.4c-0.1-10-4.6-18.7-7.3-23c-5.6-9-16.8-19.7-38.2-19.8
		c-28.8-0.1-55.4-2.4-81.1-6.9V210.3h-0.9L549.9,0.9V0.6h-0.3L549,0l-0.6,0.6L0,1.4v960.9h251.5c22.3,51.2,52.9,94.8,92.7,132.1
		c49.6,46.6,111.3,82.3,188.6,109.2c4.4,1.5,8.9,2.3,13.6,2.3c5.4,0,11-1,16.8-3.1c35.8-12.6,67.8-26.9,97.7-43.8
		c93.1-52.5,157.8-128.1,192.3-224.7c21.4-59.9,32.5-125,34-198.9C888.2,688,887.5,639.9,886.8,593.4L886.8,593.4z M310.5,863.4
		c-11.5-47.2-16.7-98.4-16.9-166.1c0-24.9,0.3-50.3,0.7-74.9c0.1-7.8,0.3-15.6,0.4-23.4c99-6.6,181.7-37.9,252-95.6
		c70.2,57.6,153.2,89,253.1,95.7v8.7c0,16.1-0.1,31.9,0,47.7c0.4,40.3,0.4,87.1-4.4,133.2c-7.1,69.2-22.9,123.2-49.9,170
		c-30.3,52.6-75.1,95-133.3,126c-15.2,8.1-31.7,15.2-47.6,22c-6,2.6-12,5.2-18,7.8c-61.2-22.9-109.5-52.3-147.7-89.9
		c-43.5-42.7-72.4-95.5-88.5-161.4H310.5z M657.7,210.3H549.8V102.1L657.7,210.3z M92.9,94.1l364-0.5v209.6h209.9v172.4
		c-32.2-15.7-61.8-36.5-88.7-62.4c-5.3-5.1-12-9-18.8-11.3c-11.2-3.6-28.1-4.3-44.9,11.9c-36.6,35.4-78.5,61.4-124.5,77.2
		c-40.3,13.9-85.7,20.8-138.4,21.1c-25.7,0.2-44.4,18.9-44.6,44.6c-0.1,23.9-0.1,47.9,0,71.9v15.2H206v14.3c0,8,0,15.9-0.1,23.9
		c-0.1,17.5-0.3,35.7,0.3,53.5c1.5,49,6.7,92.9,15.7,133.7h-129V94.1z"/>
	<path class="st0" d="M478,908.8c9,8.9,20.2,13.3,31.4,13.3c11.2,0,22.4-4.5,31.3-13.3c49.9-49.7,99.7-99.5,149.5-149.3
		c9.7-9.7,14.1-22,12.7-35.3c-2-18.2-12.3-31.5-29.2-37.4c-17-6-33.5-2-46.7,11c-34.9,34.9-69.9,69.8-104.8,104.8
		c-4.3,4.3-8.5,8.5-12.7,13l-6-6c-12.6-12.7-25-25.1-37.4-37.5c-17.5-17.4-44.9-17.6-62.2-0.6c-8.5,8.3-13.3,19.4-13.4,31.2
		c-0.1,11.8,4.6,23,13.1,31.7C427.2,858.2,452.2,883.2,478,908.8L478,908.8z"/>
	<path class="st0" d="M1082.8,525.4c0-111.2,67.7-216.4,202.9-216.4c84.1,0,148.8,40.2,179.2,123l-92.2,35.9
		c-13.6-39.7-39.7-67.7-87.1-67.7c-69.3,0-98.1,62.1-98.1,125.1c0,63,28.8,125.5,98.1,125.5c47.4,0,73.6-27.5,87.1-67.7l92.2,35.9
		c-30.4,82.9-95.1,123.4-179.2,123.4c-135.2,0-202.9-105.3-202.9-217.3V525.4z"/>
	<path class="st0" d="M1490.1,525.4c0-125.5,87.5-216.4,209.7-216.4c122.1,0,209.2,90.9,209.2,216.4c0,125.5-88.8,217.3-209.2,217.3
		C1579.3,742.7,1490.1,651.4,1490.1,525.4z M1699.8,650.1c65.5,0,104-46.9,104-124.7c0-77.8-38.4-124.3-104-124.3
		c-65.6,0-104.8,46.5-104.8,124.3C1594.9,603.1,1634.3,650.1,1699.8,650.1z"/>
	<path class="st0" d="M1959.1,317.3h105.7V371c27.9-45.3,75.2-62.1,121.8-62.1c94.7,0,150.9,56.2,150.9,153v272.3h-105.3V500.8
		c0-69.3-24.5-100.6-77-100.6c-60.5,0-90.4,41.4-90.4,134v200h-105.7V317.3L1959.1,317.3z"/>
	<path class="st0" d="M2444.3,612V398.9h-74.5v-81.6h74.5V162.9l104.3,0.1v154.3h88.6v81.6h-88.6v183.9c0,48.2,10.4,73.6,47.2,73.6
		c10.8,0,25.3-2.6,41.4-7.2V730c-22.3,8.5-46,12.7-69.6,12.7C2501.9,742.7,2444.3,708,2444.3,612L2444.3,612z"/>
	<path class="st0" d="M2698.1,317.3h105.7v57.9c24.5-41,69.8-66.4,112.5-66.4c26.6,0,50.7,6.7,78.6,23.7l-50.7,94.7
		c-12.7-7.2-33.8-13.6-52.8-13.6c-34.2,0-65.9,17.3-79.9,57.9c-5.5,16.9-8,36.4-8,83.3v179.2h-105.3V317.3z"/>
	<path class="st0" d="M3280.4,684.7c-30.1,43.5-74.4,57.9-119.2,57.9c-91.7,0-158.9-54.5-158.9-137.4c0-47.4,21.1-82.4,54.5-101.5
		c27.5-16,63-22.8,101.9-22.8h120v-10.1c0-43.5-29.6-70.6-85.3-70.6c-36.8,0-71.4,12.3-108.7,51.2l-75.7-63.8
		c49.4-54.6,120-78.6,191.9-78.6c114.9,0,182.6,61.3,182.6,161.9v263.4h-96.4L3280.4,684.7L3280.4,684.7z M3176.4,657.6
		c55.8,0,102.3-39.7,102.3-94.7v-3.8h-104.8c-18.6,0-36.4,2.5-49,11.4c-11.4,8-17.3,19.9-17.3,35.1
		C3107.5,637.3,3134.1,657.6,3176.4,657.6L3176.4,657.6z"/>
	<path class="st0" d="M3429,525.4c0-111.2,67.7-216.4,202.9-216.4c84.2,0,148.8,40.2,179.2,123l-92.2,35.9
		c-13.6-39.7-39.7-67.7-87.1-67.7c-69.3,0-98.1,62.1-98.1,125.1c0,63,28.8,125.5,98.1,125.5c47.4,0,73.6-27.5,87.1-67.7l92.2,35.9
		c-30.4,82.9-95.1,123.4-179.2,123.4c-135.2,0-202.9-105.3-202.9-217.3V525.4z"/>
	<path class="st0" d="M3908.7,612V398.9h-74v-81.6h74V162.9l103.5,0.1v154.3h87.9v81.6h-87.9v183.9c0,48.2,10.2,73.6,46.9,73.6
		c10.7,0,25.1-2.6,41.1-7.2V730c-22.2,8.5-45.6,12.7-69,12.7C3965.8,742.7,3908.7,708,3908.7,612L3908.7,612z"/>
	<path class="st0" d="M4146.2,664l207.9-258.7h-198.6v-87.9h326.8v74.8l-199.5,253.7h199.5v88.4h-336.1V664L4146.2,664z"/>
	<path class="st0" d="M4664,702.1l-157.3-384.7h115.4l97.6,279.8l99.7-279.8h113.3l-239.3,588.9h-114.1L4664,702.1L4664,702.1z"/>
</g>
</svg>
